HIERARCHY
ROOT joint_0
{
	OFFSET 0.000000 0.000000 0.000000
	CHANNELS 6 Xposition Yposition Zposition Zrotation Yrotation Xrotation 
	JOINT joint_1
	{
		OFFSET 4.520508 -1.939880 86.268921
		CHANNELS 3 Zrotation Yrotation Xrotation
		JOINT joint_2
		{
			OFFSET -4.459717 -0.438538 78.934082
			CHANNELS 3 Zrotation Yrotation Xrotation
			JOINT joint_3
			{
				OFFSET -5.197754 -0.781128 78.796997
				CHANNELS 3 Zrotation Yrotation Xrotation
				JOINT joint_4
				{
					OFFSET 2.952026 -3.710571 109.812988
					CHANNELS 3 Zrotation Yrotation Xrotation
					JOINT joint_5
					{
						OFFSET 24.716797 -5.488037 87.903931
						CHANNELS 3 Zrotation Yrotation Xrotation
						End Site
						{
							OFFSET 0.000000 0.000000 0.000000
						}
					}
				}
				JOINT joint_6
				{
					OFFSET -3.154419 -25.484680 60.934937
					CHANNELS 3 Zrotation Yrotation Xrotation
					JOINT joint_7
					{
						OFFSET -28.997192 -144.472229 -32.671997
						CHANNELS 3 Zrotation Yrotation Xrotation
						JOINT joint_8
						{
							OFFSET 19.867676 -18.614380 -249.897949
							CHANNELS 3 Zrotation Yrotation Xrotation
							JOINT joint_9
							{
								OFFSET 5.281982 -13.816650 -264.993042
								CHANNELS 3 Zrotation Yrotation Xrotation
								End Site
								{
									OFFSET 0.000000 0.000000 0.000000
								}
							}
						}
					}
				}
				JOINT joint_10
				{
					OFFSET 6.494995 21.336792 62.257935
					CHANNELS 3 Zrotation Yrotation Xrotation
					JOINT joint_11
					{
						OFFSET 31.106567 145.200745 -27.007935
						CHANNELS 3 Zrotation Yrotation Xrotation
						JOINT joint_12
						{
							OFFSET 29.119141 24.684326 -248.460083
							CHANNELS 3 Zrotation Yrotation Xrotation
							JOINT joint_13
							{
								OFFSET 21.220093 31.248413 -262.703979
								CHANNELS 3 Zrotation Yrotation Xrotation
								End Site
								{
									OFFSET 0.000000 0.000000 0.000000
								}
							}
						}
					}
				}
			}
		}
	}
	JOINT joint_14
	{
		OFFSET -15.458496 -88.861694 -109.593018
		CHANNELS 3 Zrotation Yrotation Xrotation
		JOINT joint_15
		{
			OFFSET -6.193359 6.837952 -506.710999
			CHANNELS 3 Zrotation Yrotation Xrotation
			JOINT joint_16
			{
				OFFSET -35.096680 13.289795 -435.677025
				CHANNELS 3 Zrotation Yrotation Xrotation
				JOINT joint_17
				{
					OFFSET 158.491211 -33.916565 -71.771002
					CHANNELS 3 Zrotation Yrotation Xrotation
					End Site
					{
						OFFSET 0.000000 0.000000 0.000000
					}
				}
			}
		}
	}
	JOINT joint_18
	{
		OFFSET 23.116943 86.574158 -110.082031
		CHANNELS 3 Zrotation Yrotation Xrotation
		JOINT joint_19
		{
			OFFSET -6.125854 -0.283569 -506.757019
			CHANNELS 3 Zrotation Yrotation Xrotation
			JOINT joint_20
			{
				OFFSET -63.240234 11.589966 -432.537994
				CHANNELS 3 Zrotation Yrotation Xrotation
				JOINT joint_21
				{
					OFFSET 156.074219 -41.487305 -73.077999
					CHANNELS 3 Zrotation Yrotation Xrotation
					End Site
					{
						OFFSET 0.000000 0.000000 0.000000
					}
				}
			}
		}
	}
}
MOTION
Frames: 10
Frame Time: 0.016667
-1799.305298 773.867188 1152.862061 12.553781 -2.462565 -0.395667 -0.643160 1.145454 1.638827 -0.890587 -0.107469 -0.375659 -0.842517 0.237916 0.278414 -0.151246 4.677555 1.345817 0.000000 0.000000 0.000000 0.952523 7.077750 -1.879507 0.111087 5.844235 5.417980 0.096763 -3.782732 -3.762467 0.000000 0.000000 0.000000 -0.699099 4.775201 2.443610 0.154194 5.239929 0.974226 -0.911078 -4.411623 -3.023099 0.000000 0.000000 0.000000 -3.033350 -20.965515 -6.571093 1.320692 21.288672 4.357167 3.090976 12.385873 4.083044 0.000000 0.000000 0.000000 -0.337187 3.461346 0.464063 -0.707040 12.242728 3.530107 0.198748 3.368414 0.978923 0.000000 0.000000 0.000000 
-1787.997070 770.971191 1149.374023 13.066934 -2.391904 -0.071004 -0.873468 0.868819 1.244623 -1.015543 -0.123320 -0.257567 -0.972250 0.155304 0.255751 -0.143551 4.747294 1.317435 0.000000 0.000000 0.000000 0.510355 7.519591 -2.090221 0.001572 6.215797 5.209683 0.165789 -5.422941 -3.554950 0.000000 0.000000 0.000000 -0.650673 4.836052 2.757297 0.176312 5.274837 1.369604 -1.004961 -4.754238 -3.424090 0.000000 0.000000 0.000000 -2.695640 -20.957410 -7.478849 1.880573 16.478957 3.187418 3.192278 16.683911 5.127715 0.000000 0.000000 0.000000 -0.354760 3.785878 0.349869 -0.755579 12.745964 3.698222 0.257694 2.302448 0.713006 0.000000 0.000000 0.000000 
-1776.311279 767.713623 1144.165039 13.746158 -2.522947 0.099643 -1.088538 0.813567 0.991386 -1.175993 -0.173539 -0.177796 -1.137918 0.125521 0.235746 -0.130560 4.798279 1.281371 0.000000 0.000000 0.000000 0.260089 7.941712 -2.481539 -0.056532 6.478805 5.433124 0.202257 -6.690604 -3.564821 0.000000 0.000000 0.000000 -1.019300 4.891367 3.042253 0.183416 5.415028 1.574141 -1.067069 -5.148914 -3.460765 0.000000 0.000000 0.000000 -2.361188 -20.780270 -8.253322 2.450172 13.601774 2.902186 3.596158 20.191134 6.136440 0.000000 0.000000 0.000000 -0.526793 4.313192 0.544762 -0.976211 13.438783 3.731118 0.142613 0.526115 0.179743 0.000000 0.000000 0.000000 
-1764.399292 764.201050 1137.703003 14.351161 -2.653714 0.124333 -1.254616 0.685639 0.969325 -1.294283 -0.134485 -0.205856 -1.246459 0.122584 0.214265 -0.114985 4.783897 1.236045 0.000000 0.000000 0.000000 0.137925 8.329956 -2.979972 -0.081452 6.660508 5.904141 0.219773 -7.699009 -3.706806 0.000000 0.000000 0.000000 -1.620230 4.918630 3.284685 0.184169 5.583323 1.674287 -1.100331 -5.544165 -3.227632 0.000000 0.000000 0.000000 -1.986141 -20.672413 -8.795997 3.011127 12.130081 3.134389 4.142654 22.595538 6.970412 0.000000 0.000000 0.000000 -0.732877 4.826235 0.983380 -1.220427 14.294265 3.680792 -0.003213 -1.731843 -0.494580 0.000000 0.000000 0.000000 
-1752.783813 760.537598 1131.229980 14.848523 -2.968425 0.083018 -1.335194 0.796005 1.006892 -1.396868 -0.131236 -0.253827 -1.344106 0.180356 0.203800 -0.106932 4.735785 1.210960 0.000000 0.000000 0.000000 0.097302 8.492490 -3.289178 -0.108358 6.724850 6.098621 0.226125 -8.244991 -3.756129 0.000000 0.000000 0.000000 -2.087497 4.844121 3.313132 0.205951 5.542182 1.961772 -1.103763 -5.790599 -2.902236 0.000000 0.000000 0.000000 -1.938992 -20.452332 -8.886972 3.028049 12.027260 3.325978 4.199414 22.799948 7.050624 0.000000 0.000000 0.000000 -0.864109 5.521850 1.405433 -1.387316 15.133955 3.798309 -0.047763 -3.765896 -1.063132 0.000000 0.000000 0.000000 
-1741.495361 756.604614 1124.594971 15.331687 -3.775108 -0.010283 -1.300083 1.579312 1.007259 -1.535896 -0.289387 -0.277032 -1.498592 0.365448 0.227500 -0.113457 4.647267 1.226706 0.000000 0.000000 0.000000 0.168469 8.328729 -3.285057 -0.156597 6.649663 5.786592 0.228138 -8.271346 -3.570886 0.000000 0.000000 0.000000 -2.316300 4.616331 2.986786 0.266700 5.140491 2.682358 -1.082264 -5.869237 -2.549406 0.000000 0.000000 0.000000 -2.581567 -19.809163 -8.302674 1.972279 13.861268 3.294788 3.231529 19.374345 5.785020 0.000000 0.000000 0.000000 -0.904758 6.743600 1.707392 -1.463705 15.909000 4.258079 0.055286 -5.453826 -1.474724 0.000000 0.000000 0.000000 
-1730.502441 752.519714 1117.948975 15.831656 -4.846329 -0.126451 -1.236417 2.771331 0.955992 -1.688505 -0.575976 -0.257434 -1.677377 0.617046 0.268032 -0.128681 4.517242 1.263742 0.000000 0.000000 0.000000 0.322119 7.941418 -3.094184 -0.200043 6.456861 5.193375 0.224993 -7.837880 -3.289465 0.000000 0.000000 0.000000 -2.401041 4.282403 2.435989 0.342399 4.519263 3.598601 -1.032881 -5.803653 -2.110948 0.000000 0.000000 0.000000 -3.488654 -18.883247 -7.413502 0.544166 16.894698 3.200809 1.926681 13.991106 3.950707 0.000000 0.000000 0.000000 -0.936585 8.230264 1.929969 -1.494873 16.654195 4.913187 0.246030 -6.878820 -1.779708 0.000000 0.000000 0.000000 
-1720.241455 748.742310 1112.977051 16.092814 -5.485084 -0.182629 -1.198001 3.459050 0.884858 -1.738803 -0.769595 -0.213191 -1.742999 0.756724 0.292323 -0.140941 4.398807 1.286514 0.000000 0.000000 0.000000 0.391953 7.445804 -2.795323 -0.206933 6.172273 4.473305 0.210427 -6.906768 -3.103310 0.000000 0.000000 0.000000 -2.307607 3.919846 1.884205 0.399030 3.885257 4.278757 -0.942839 -5.518811 -1.574710 0.000000 0.000000 0.000000 -4.074015 -18.403544 -6.694513 -0.332186 19.467669 3.046053 1.151075 9.899407 2.680537 0.000000 0.000000 0.000000 -0.927444 9.189181 2.063214 -1.451562 17.362235 5.509866 0.501970 -7.767836 -1.915310 0.000000 0.000000 0.000000 
-1711.003662 745.353882 1110.447998 15.790289 -5.187980 -0.170219 -1.126887 2.945716 0.901301 -1.569062 -0.670925 -0.212367 -1.563966 0.677449 0.279350 -0.142892 4.310586 1.270825 0.000000 0.000000 0.000000 0.258071 6.799472 -2.260375 -0.174338 5.781025 3.479911 0.166306 -5.188254 -3.059500 0.000000 0.000000 0.000000 -1.937801 3.531253 1.301942 0.437999 3.230889 4.656423 -0.769721 -4.804585 -0.824190 0.000000 0.000000 0.000000 -4.196325 -19.134110 -6.108742 -0.402637 21.375452 2.763650 1.174350 8.056330 2.268775 0.000000 0.000000 0.000000 -0.760745 9.025691 2.107194 -1.257102 18.146345 5.978013 0.886917 -8.070779 -1.841869 0.000000 0.000000 0.000000 
-1702.495605 742.272095 1109.593018 15.153493 -4.413482 -0.127070 -1.024711 1.829402 0.976997 -1.279974 -0.421804 -0.226170 -1.255620 0.480623 0.247492 -0.138120 4.238601 1.231454 0.000000 0.000000 0.000000 0.017488 6.028538 -1.573958 -0.139635 5.308428 2.310624 0.079133 -2.970832 -3.100616 0.000000 0.000000 0.000000 -1.376945 3.124001 0.710572 0.452538 2.570326 4.788825 -0.558731 -3.898052 0.055609 0.000000 0.000000 0.000000 -4.100745 -20.445772 -5.557224 -0.119313 23.036339 2.447648 1.560177 7.178079 2.226487 0.000000 0.000000 0.000000 -0.496717 8.292177 2.092568 -0.971754 18.919636 6.361178 1.339315 -7.910747 -1.617893 0.000000 0.000000 0.000000 
